<?xml version="1.0" encoding="utf-8"?>
<!-- Generator: Adobe Illustrator 24.0.0, SVG Export Plug-In . SVG Version: 6.00 Build 0)  -->
<svg version="1.1" id="图层_1" xmlns="http://www.w3.org/2000/svg" xmlns:xlink="http://www.w3.org/1999/xlink" x="0px" y="0px"
	 width="1200px" height="512px" viewBox="0 0 1200 512" style="enable-background:new 0 0 1200 512;" xml:space="preserve">
<g>
	<circle style="fill:#00B3B4;" cx="286" cy="256" r="256"/>
</g>
<g>
	<path style="fill:#FFFFFF;" d="M58.4,312.4V190.7h14.9v43.7c7-8.1,15.8-12.1,26.4-12.1c6.5,0,12.2,1.3,17,3.9s8.3,6.1,10.3,10.7
		c2.1,4.5,3.1,11.1,3.1,19.8v55.9h-14.9v-55.9c0-7.5-1.6-12.9-4.9-16.3s-7.8-5.1-13.7-5.1c-4.4,0-8.6,1.1-12.5,3.4
		c-3.9,2.3-6.7,5.4-8.3,9.3c-1.7,3.9-2.5,9.4-2.5,16.3v48.2L58.4,312.4L58.4,312.4z"/>
	<path style="fill:#FFFFFF;" d="M210.5,301.5c-5.5,4.7-10.9,8-16,10s-10.6,2.9-16.5,2.9c-9.7,0-17.1-2.4-22.3-7.1
		s-7.8-10.8-7.8-18.1c0-4.3,1-8.3,2.9-11.8c2-3.6,4.5-6.4,7.7-8.6c3.2-2.2,6.8-3.8,10.8-4.9c2.9-0.8,7.4-1.5,13.3-2.2
		c12.1-1.4,20.9-3.1,26.6-5.1c0.1-2.1,0.1-3.4,0.1-3.9c0-6.1-1.4-10.4-4.2-12.9c-3.8-3.4-9.5-5.1-17-5.1c-7,0-12.2,1.2-15.6,3.7
		c-3.4,2.5-5.8,6.8-7.4,13.1l-14.6-2c1.3-6.3,3.5-11.3,6.6-15.1c3-3.9,7.4-6.8,13.2-8.9c5.8-2.1,12.4-3.1,20-3.1
		c7.5,0,13.6,0.9,18.3,2.7s8.2,4,10.4,6.7c2.2,2.7,3.8,6.1,4.6,10.2c0.5,2.6,0.8,7.1,0.8,13.8v19.9c0,13.9,0.3,22.7,0.9,26.4
		c0.6,3.7,1.9,7.2,3.8,10.6h-15.6C211.9,309.3,210.9,305.7,210.5,301.5z M209.2,268.1c-5.4,2.2-13.6,4.1-24.4,5.6
		c-6.1,0.9-10.5,1.9-13,3c-2.6,1.1-4.5,2.7-5.9,4.9c-1.4,2.1-2.1,4.5-2.1,7.1c0,4,1.5,7.3,4.5,10c3,2.7,7.4,4,13.2,4
		c5.8,0,10.9-1.3,15.4-3.8c4.5-2.5,7.8-6,9.9-10.3c1.6-3.4,2.4-8.4,2.4-14.9L209.2,268.1L209.2,268.1z"/>
	<path style="fill:#FFFFFF;" d="M247.5,312.4v-88.1h13.5v12.5c6.5-9.7,15.8-14.5,28.1-14.5c5.3,0,10.2,0.9,14.6,2.9
		c4.5,1.9,7.8,4.4,10,7.5c2.2,3.1,3.8,6.8,4.6,11c0.5,2.8,0.8,7.6,0.8,14.5v54.2h-14.9v-53.6c0-6.1-0.6-10.6-1.7-13.6
		c-1.2-3-3.2-5.4-6.2-7.2s-6.4-2.7-10.4-2.7c-6.4,0-11.9,2-16.5,6.1s-6.9,11.7-6.9,23v48.1L247.5,312.4L247.5,312.4z"/>
	<path style="fill:#FFFFFF;" d="M402.4,284l15.4,1.9c-2.4,9-7,16-13.5,21c-6.6,5-15,7.5-25.2,7.5c-12.9,0-23.1-4-30.7-11.9
		c-7.5-7.9-11.3-19.1-11.3-33.4c0-14.8,3.8-26.3,11.5-34.5c7.6-8.2,17.5-12.3,29.7-12.3c11.8,0,21.4,4,28.9,12
		c7.5,8,11.2,19.3,11.2,33.9c0,0.9,0,2.2-0.1,4h-65.7c0.5,9.7,3.3,17.1,8.2,22.3c4.9,5.1,11.1,7.7,18.4,7.7c5.5,0,10.1-1.4,14-4.3
		C397,294.9,400.1,290.3,402.4,284z M353.3,259.8h49.2c-0.7-7.4-2.5-13-5.6-16.7c-4.8-5.8-10.9-8.6-18.5-8.6
		c-6.9,0-12.6,2.3-17.3,6.9C356.4,246,353.8,252.1,353.3,259.8z"/>
	<path style="fill:#FFFFFF;" d="M431,268.3c0-16.3,4.5-28.4,13.6-36.3c7.6-6.5,16.8-9.8,27.7-9.8c12.1,0,22,4,29.7,11.9
		c7.7,7.9,11.5,18.9,11.5,32.9c0,11.4-1.7,20.3-5.1,26.8s-8.4,11.5-14.9,15.1s-13.6,5.4-21.3,5.4c-12.3,0-22.3-4-29.9-11.9
		C434.8,294.6,431,283.2,431,268.3z M446.4,268.3c0,11.3,2.5,19.7,7.4,25.4c4.9,5.6,11.1,8.4,18.6,8.4c7.4,0,13.6-2.8,18.5-8.5
		c4.9-5.6,7.4-14.3,7.4-25.8c0-10.9-2.5-19.2-7.4-24.8c-5-5.6-11.1-8.4-18.5-8.4c-7.5,0-13.7,2.8-18.6,8.4
		C448.8,248.6,446.4,257,446.4,268.3z"/>
</g>
<path d="M591.4,288.3v13.9h-13.2V200.4h34.6v40.3l7-9.6c7.3,3,16.8,8.1,21.6,12.1l-8.8,12.7c-4.2-3.9-12.8-9-19.8-12.7v45H591.4z
	 M591.4,216.7v55.2h8.1v-55.2H591.4z M607.9,318.7c5.1-11.8,12.1-30.9,16.9-48.1l13.6,8.3c-4.2,15.9-9.9,33.3-15.1,47.7L607.9,318.7
	z M634,217.8c-4.3-4.5-13.5-10.6-20.5-14.7l8.7-10.9c7.2,3.3,16.5,9.1,21,13.5L634,217.8z M706.9,274.9c-0.4,6.6-0.9,12.3-1.3,17.2
	h6.8v14.5h-8.5c-1.2,6.9-2.7,11.1-4.3,13.5c-3.2,4.2-6.5,5.7-11.1,6.3c-4,0.8-10.3,0.6-17.1,0.4c-0.3-4.2-1.8-10.3-4.2-14.4
	c6.1,0.6,11.4,0.8,14.1,0.8c2.3,0,3.8-0.6,5.3-2.4c0.6-0.9,1.2-2.1,1.8-4.2H641c1.8-8.7,3.6-19.9,5.4-31.8h-8.2v-15.3h10.3
	c1.2-8.9,2.2-17.9,3.1-25.9c-2,3.1-4,6-6.3,8.4c-2-3-7.6-9.8-10.9-12.7c8.8-10.2,15.1-25.9,18.6-42l15.8,3.4
	c-1,4.5-2.4,8.9-3.8,13.3h47.5v16.2h-53.8c-1.5,3.5-3.2,6.6-5,9.8h55v6.9c-0.3,8.3-0.8,15.7-1,22.6h6.3v15.3H706.9z M661.6,274.9
	c-0.9,6.1-1.6,11.8-2.4,17.2h17.7c-3.6-3.6-8.8-7.9-13-10.9l6.5-6.3H661.6z M665.6,244.3c-0.6,5.1-1.3,10-2,15.3h15
	c-3.6-3.5-8.3-7.4-12-10.1l5.5-5.3H665.6z M690.5,292.2c0.6-4.8,1-10.3,1.5-17.2h-17.5c5.1,3.6,10.5,8.3,13.5,11.5l-5.4,5.7H690.5z
	 M678.7,244.3c4.8,3.3,9.6,7.5,12.3,10.5l-4.7,4.8h6.6c0.2-4.8,0.5-9.8,0.6-15.3H678.7z"/>
<path d="M772.6,193c-4,10.9-9.1,22.2-15,33v101.4h-16.9v-75c-2.7,3.6-5.5,7-8.2,10c-1.7-4.3-6.6-14.3-9.6-18.4
	c13-13.8,25.6-34.8,33-56.2L772.6,193z M810.2,238.3c-2.8,37.2-11.5,69-39.3,89.4c-2.8-4.8-8.4-10.9-13-14.1
	c24.9-17.1,32.2-43.6,34.6-75.3h-29.1v-16.8h30c0.3-10.3,0.3-21.1,0.3-32.2h17.8c0,10.9-0.1,21.9-0.5,32.2h30.7
	c-3.9-6.3-11.8-15.6-18.4-22.3l12.4-8.8c6.6,6.4,15.5,15.7,19.5,21.9l-12.5,9.3h19v16.8H810.2z M843.7,307.6c3.6,0,4.2-3.3,4.8-23.1
	c3.6,3,11.1,6,15.6,7.2c-1.5,24.9-5.7,32.2-18.7,32.2h-14.1c-14.8,0-18.6-5.6-18.6-22.3v-54.3H830v54.3c0,5.3,0.6,6,4,6H843.7z"/>
<path d="M898,256.9c-5.4-4.4-16.5-11.1-24.4-15.4l10-13c7.8,3.9,19.2,10,24.9,14.1L898,256.9z M909.7,277.8c-5,16-11.4,33.3-17.4,48
	l-16.2-9.2c5.5-11.7,13.3-30.6,19.2-48.1L909.7,277.8z M903.9,217.6c-5.3-4.6-16.5-11.5-24.6-16l10.5-13
	c7.8,3.9,19.2,10.3,24.9,14.7L903.9,217.6z M952.1,295.9c6.7,7.2,15.1,16.8,19,23.2l-11.4,7c-3.6-6.1-11.2-16-17.8-23.2
	c-4.3,9.6-12.3,18.3-25.8,24.4c-1.3-3-5.4-8.7-7.6-10.8c23.5-10.6,25.9-26.8,25.9-43.3v-57.1h12.9v57.3c0,9.3-0.9,19-4.8,28.2
	L952.1,295.9z M928.2,293.2h-13.3v-97.9H968v97h-14v-84.4h-25.9V293.2z M988.6,292.9h-13.5V201h13.5V292.9z M1009.6,189.7v119.7
	c0,8.1-1.5,12.1-6.3,14.5c-4.6,2.4-12,3-22.8,2.8c-0.6-3.9-2.7-10.3-4.5-14.5c7.2,0.3,14.3,0.2,16.5,0.2c2.3,0,3.2-0.8,3.2-3V189.7
	H1009.6z"/>
<path d="M1069.2,281.4c1.5,4.6,4.3,11.7,6.6,15.1c-25.6,21.4-30.4,25.5-33,29.1c-1.4-4.3-5.3-11.4-8.1-14.8
	c3.3-2.1,7.2-6.8,7.2-13.3v-46.9h-17.4v-17.1h34v56.7L1069.2,281.4z M1053.6,225.1c-4.5-6.6-15.1-16.9-22.8-24.1L1042,190
	c7.8,6.7,18.6,16.3,23.7,22.8L1053.6,225.1z M1164.1,278.5h-38.2v48.9h-18.1v-48.9h-38.1v-17.1h38.1v-50.2h-34.6v-16.9h85.5v16.9
	h-32.7v50.2h38.2V278.5z M1090.9,216.9c3.8,11.1,7,25.2,8.1,34.6l-15.9,4.1c-0.8-9.4-3.9-24-7.3-34.9L1090.9,216.9z M1133.8,252.6
	c3-9.6,6.8-24.7,8.3-35.5l17.1,3.6c-3.7,12.6-7.8,26.5-11.4,35.5L1133.8,252.6z"/>
</svg>
